<svg xmlns="http://www.w3.org/2000/svg" width="400" height="400" viewBox="0 0 400 400">
  <rect width="100%" height="100%" fill="#ffffff"/>
  <g fill="#000">
    <rect x="20" y="20" width="100" height="100"/>
    <rect x="60" y="60" width="20" height="20" fill="#fff"/>

    <rect x="280" y="20" width="100" height="100"/>
    <rect x="320" y="60" width="20" height="20" fill="#fff"/>

    <rect x="20" y="280" width="100" height="100"/>
    <rect x="60" y="320" width="20" height="20" fill="#fff"/>

    <!-- some filler blocks to mimic a QR pattern -->
    <rect x="140" y="80" width="20" height="20"/>
    <rect x="170" y="80" width="20" height="20"/>
    <rect x="200" y="120" width="20" height="20"/>
    <rect x="230" y="160" width="20" height="20"/>
    <rect x="140" y="200" width="20" height="20"/>
    <rect x="170" y="220" width="20" height="20"/>
    <rect x="200" y="240" width="20" height="20"/>
    <rect x="260" y="200" width="20" height="20"/>
  </g>
  <text x="200" y="370" font-size="14" text-anchor="middle" fill="#888">Replace with real QR</text>
</svg>